<mxfile host="app.diagrams.net" agent="Mozilla/5.0 (Windows NT 10.0; Win64; x64) AppleWebKit/537.36 (KHTML, like Gecko) Chrome/130.0.0.0 YaBrowser/24.12.0.0 Safari/537.36" version="26.0.8">
  <diagram name="Страница — 1" id="AFWYC8pL8vRz5wajWs5p">
    <mxGraphModel dx="334" dy="1361" grid="1" gridSize="10" guides="1" tooltips="1" connect="1" arrows="1" fold="1" page="1" pageScale="1" pageWidth="827" pageHeight="1169" math="0" shadow="0">
      <root>
        <mxCell id="0" />
        <mxCell id="1" parent="0" />
        <mxCell id="8HPSa5ATCsyHZr1YajdJ-1" value="" style="rounded=0;whiteSpace=wrap;html=1;" vertex="1" parent="1">
          <mxGeometry x="120" y="-500" width="120" height="60" as="geometry" />
        </mxCell>
        <mxCell id="8HPSa5ATCsyHZr1YajdJ-2" value="Антенна" style="text;html=1;align=center;verticalAlign=middle;whiteSpace=wrap;rounded=0;" vertex="1" parent="1">
          <mxGeometry x="150" y="-495" width="60" height="50" as="geometry" />
        </mxCell>
        <mxCell id="8HPSa5ATCsyHZr1YajdJ-3" value="" style="rounded=0;whiteSpace=wrap;html=1;" vertex="1" parent="1">
          <mxGeometry x="120" y="-395" width="520" height="240" as="geometry" />
        </mxCell>
        <mxCell id="8HPSa5ATCsyHZr1YajdJ-4" value="" style="rounded=0;whiteSpace=wrap;html=1;" vertex="1" parent="1">
          <mxGeometry x="140" y="-380" width="50" height="30" as="geometry" />
        </mxCell>
        <mxCell id="8HPSa5ATCsyHZr1YajdJ-9" value="" style="edgeStyle=orthogonalEdgeStyle;rounded=0;orthogonalLoop=1;jettySize=auto;html=1;entryX=0;entryY=0.5;entryDx=0;entryDy=0;" edge="1" parent="1" target="8HPSa5ATCsyHZr1YajdJ-6">
          <mxGeometry relative="1" as="geometry">
            <mxPoint x="190" y="-365" as="sourcePoint" />
          </mxGeometry>
        </mxCell>
        <mxCell id="8HPSa5ATCsyHZr1YajdJ-5" value="iFFT" style="text;html=1;align=center;verticalAlign=middle;whiteSpace=wrap;rounded=0;" vertex="1" parent="1">
          <mxGeometry x="135" y="-380" width="60" height="30" as="geometry" />
        </mxCell>
        <mxCell id="8HPSa5ATCsyHZr1YajdJ-10" style="edgeStyle=orthogonalEdgeStyle;rounded=0;orthogonalLoop=1;jettySize=auto;html=1;exitX=1;exitY=0.5;exitDx=0;exitDy=0;entryX=0;entryY=0.5;entryDx=0;entryDy=0;" edge="1" parent="1" source="8HPSa5ATCsyHZr1YajdJ-6" target="8HPSa5ATCsyHZr1YajdJ-8">
          <mxGeometry relative="1" as="geometry" />
        </mxCell>
        <mxCell id="8HPSa5ATCsyHZr1YajdJ-6" value="" style="rounded=0;whiteSpace=wrap;html=1;" vertex="1" parent="1">
          <mxGeometry x="220" y="-395" width="90" height="60" as="geometry" />
        </mxCell>
        <mxCell id="8HPSa5ATCsyHZr1YajdJ-7" value="Programmable&lt;div&gt;Channel&lt;/div&gt;&lt;div&gt;Filter&lt;/div&gt;" style="text;html=1;align=center;verticalAlign=middle;whiteSpace=wrap;rounded=0;" vertex="1" parent="1">
          <mxGeometry x="235" y="-380" width="60" height="30" as="geometry" />
        </mxCell>
        <mxCell id="8HPSa5ATCsyHZr1YajdJ-23" value="" style="edgeStyle=orthogonalEdgeStyle;rounded=0;orthogonalLoop=1;jettySize=auto;html=1;entryX=0;entryY=0.5;entryDx=0;entryDy=0;" edge="1" parent="1" source="8HPSa5ATCsyHZr1YajdJ-8" target="8HPSa5ATCsyHZr1YajdJ-12">
          <mxGeometry relative="1" as="geometry" />
        </mxCell>
        <mxCell id="8HPSa5ATCsyHZr1YajdJ-8" value="" style="rounded=0;whiteSpace=wrap;html=1;" vertex="1" parent="1">
          <mxGeometry x="340" y="-380" width="50" height="30" as="geometry" />
        </mxCell>
        <mxCell id="8HPSa5ATCsyHZr1YajdJ-11" value="DUC &amp;amp; Mixer" style="text;html=1;align=center;verticalAlign=middle;whiteSpace=wrap;rounded=0;" vertex="1" parent="1">
          <mxGeometry x="340" y="-380" width="45" height="30" as="geometry" />
        </mxCell>
        <mxCell id="8HPSa5ATCsyHZr1YajdJ-19" value="" style="edgeStyle=orthogonalEdgeStyle;rounded=0;orthogonalLoop=1;jettySize=auto;html=1;" edge="1" parent="1" source="8HPSa5ATCsyHZr1YajdJ-12" target="8HPSa5ATCsyHZr1YajdJ-15">
          <mxGeometry relative="1" as="geometry" />
        </mxCell>
        <mxCell id="8HPSa5ATCsyHZr1YajdJ-12" value="" style="rounded=0;whiteSpace=wrap;html=1;" vertex="1" parent="1">
          <mxGeometry x="420" y="-380" width="50" height="30" as="geometry" />
        </mxCell>
        <mxCell id="8HPSa5ATCsyHZr1YajdJ-13" value="P/Q&lt;div&gt;resampler&lt;/div&gt;" style="text;html=1;align=center;verticalAlign=middle;whiteSpace=wrap;rounded=0;" vertex="1" parent="1">
          <mxGeometry x="415" y="-380" width="60" height="30" as="geometry" />
        </mxCell>
        <mxCell id="8HPSa5ATCsyHZr1YajdJ-14" value="" style="rounded=0;whiteSpace=wrap;html=1;" vertex="1" parent="1">
          <mxGeometry x="500" y="-380" width="40" height="30" as="geometry" />
        </mxCell>
        <mxCell id="8HPSa5ATCsyHZr1YajdJ-15" value="DPD" style="text;html=1;align=center;verticalAlign=middle;whiteSpace=wrap;rounded=0;" vertex="1" parent="1">
          <mxGeometry x="500" y="-375" width="40" height="20" as="geometry" />
        </mxCell>
      </root>
    </mxGraphModel>
  </diagram>
</mxfile>
